<svg width="470" height="100" viewBox="0 0 470 100" fill="none" xmlns="http://www.w3.org/2000/svg">
<path d="M381 53L373 49L365 53M381 53L373 57M381 53V63L373 67M373 57L365 53M373 57V67M365 53V63L373 67" stroke="#FF2D20" stroke-width="1.5" stroke-linejoin="round"/>
<path d="M393.474 55.8636V56.858H389.358V55.8636H393.474ZM390.591 63.5V54.8097C390.591 54.3722 390.694 54.0076 390.899 53.7159C391.105 53.4242 391.371 53.2055 391.7 53.0597C392.028 52.9138 392.374 52.8409 392.739 52.8409C393.027 52.8409 393.262 52.8641 393.445 52.9105C393.627 52.9569 393.763 53 393.852 53.0398L393.514 54.054C393.455 54.0341 393.372 54.0092 393.266 53.9794C393.163 53.9496 393.027 53.9347 392.858 53.9347C392.47 53.9347 392.19 54.0324 392.018 54.228C391.849 54.4235 391.764 54.7102 391.764 55.0881V63.5H390.591ZM397.907 63.6591C397.217 63.6591 396.612 63.495 396.092 63.1669C395.575 62.8388 395.171 62.3797 394.879 61.7898C394.591 61.1998 394.446 60.5104 394.446 59.7216C394.446 58.9261 394.591 58.2318 394.879 57.6385C395.171 57.0452 395.575 56.5845 396.092 56.2564C396.612 55.9283 397.217 55.7642 397.907 55.7642C398.596 55.7642 399.199 55.9283 399.716 56.2564C400.237 56.5845 400.641 57.0452 400.929 57.6385C401.221 58.2318 401.367 58.9261 401.367 59.7216C401.367 60.5104 401.221 61.1998 400.929 61.7898C400.641 62.3797 400.237 62.8388 399.716 63.1669C399.199 63.495 398.596 63.6591 397.907 63.6591ZM397.907 62.6051C398.43 62.6051 398.861 62.4709 399.199 62.2024C399.537 61.9339 399.788 61.581 399.95 61.1435C400.112 60.706 400.194 60.232 400.194 59.7216C400.194 59.2112 400.112 58.7356 399.95 58.2947C399.788 57.8539 399.537 57.4976 399.199 57.2259C398.861 56.9541 398.43 56.8182 397.907 56.8182C397.383 56.8182 396.952 56.9541 396.614 57.2259C396.276 57.4976 396.026 57.8539 395.863 58.2947C395.701 58.7356 395.62 59.2112 395.62 59.7216C395.62 60.232 395.701 60.706 395.863 61.1435C396.026 61.581 396.276 61.9339 396.614 62.2024C396.952 62.4709 397.383 62.6051 397.907 62.6051ZM403.158 63.5V55.8636H404.291V57.017H404.371C404.51 56.6392 404.762 56.3326 405.127 56.0973C405.491 55.862 405.902 55.7443 406.36 55.7443C406.446 55.7443 406.553 55.746 406.683 55.7493C406.812 55.7526 406.91 55.7576 406.976 55.7642V56.9574C406.936 56.9474 406.845 56.9325 406.703 56.9126C406.563 56.8894 406.416 56.8778 406.26 56.8778C405.889 56.8778 405.557 56.9557 405.266 57.1115C404.977 57.264 404.749 57.4761 404.58 57.7479C404.414 58.0163 404.331 58.3229 404.331 58.6676V63.5H403.158Z" fill="#FF2D20"/>
<path d="M413.939 51.8711H412V63.6689H417.582V61.9329H413.939V51.8711Z" fill="#FF2D20"/>
<path d="M424.459 57.1352C424.212 56.7419 423.86 56.433 423.405 56.2082C422.95 55.9835 422.492 55.8711 422.031 55.8711C421.435 55.8711 420.889 55.9807 420.395 56.1997C419.9 56.4188 419.476 56.7196 419.121 57.1015C418.767 57.4836 418.492 57.9246 418.295 58.4244C418.098 58.9245 418 59.45 418 60.0004C418 60.5623 418.098 61.0904 418.295 61.5846C418.492 62.0792 418.767 62.5174 419.121 62.8993C419.476 63.2814 419.9 63.5819 420.395 63.8009C420.889 64.02 421.435 64.1296 422.031 64.1296C422.492 64.1296 422.95 64.0171 423.405 63.7926C423.86 63.568 424.212 63.259 424.459 62.8656V63.9274H426.297V56.0734H424.459V57.1352ZM424.29 60.961C424.178 61.2644 424.021 61.5285 423.818 61.7532C423.616 61.978 423.371 62.1577 423.085 62.2925C422.798 62.4274 422.48 62.4947 422.132 62.4947C421.783 62.4947 421.468 62.4274 421.187 62.2925C420.906 62.1576 420.665 61.978 420.462 61.7532C420.26 61.5285 420.105 61.2644 419.998 60.961C419.891 60.6577 419.838 60.3374 419.838 60.0004C419.838 59.6633 419.891 59.343 419.998 59.0397C420.105 58.7363 420.26 58.4724 420.462 58.2476C420.665 58.023 420.906 57.843 421.187 57.7083C421.468 57.5734 421.783 57.506 422.132 57.506C422.48 57.506 422.798 57.5734 423.085 57.7083C423.371 57.8432 423.616 58.023 423.818 58.2476C424.021 58.4724 424.178 58.7363 424.29 59.0397C424.403 59.343 424.459 59.6633 424.459 60.0004C424.459 60.3374 424.403 60.6577 424.29 60.961Z" fill="#FF2D20"/>
<path d="M439.37 56.8765C439.123 56.4833 438.771 56.1744 438.316 55.9496C437.861 55.7249 437.403 55.6125 436.942 55.6125C436.346 55.6125 435.8 55.722 435.306 55.9411C434.811 56.1601 434.387 56.461 434.033 56.8429C433.678 57.2249 433.403 57.666 433.206 58.1658C433.009 58.6659 432.911 59.1913 432.911 59.7417C432.911 60.3037 433.009 60.8317 433.206 61.326C433.403 61.8206 433.678 62.2588 434.033 62.6406C434.387 63.0227 434.811 63.3232 435.306 63.5423C435.8 63.7613 436.346 63.8709 436.942 63.8709C437.403 63.8709 437.861 63.7585 438.316 63.5339C438.771 63.3093 439.123 63.0004 439.37 62.607V63.6688H441.208V55.8148H439.37V56.8765ZM439.201 60.7024C439.089 61.0058 438.932 61.2698 438.729 61.4945C438.527 61.7193 438.282 61.8991 437.996 62.0339C437.709 62.1687 437.391 62.2361 437.043 62.2361C436.694 62.2361 436.379 62.1687 436.098 62.0339C435.817 61.899 435.576 61.7193 435.373 61.4945C435.171 61.2698 435.016 61.0058 434.909 60.7024C434.802 60.399 434.749 60.0787 434.749 59.7417C434.749 59.4046 434.802 59.0844 434.909 58.781C435.016 58.4777 435.171 58.2138 435.373 57.989C435.576 57.7644 435.817 57.5844 436.098 57.4496C436.379 57.3147 436.694 57.2474 437.043 57.2474C437.391 57.2474 437.709 57.3147 437.996 57.4496C438.282 57.5845 438.527 57.7644 438.729 57.989C438.932 58.2138 439.089 58.4777 439.201 58.781C439.314 59.0844 439.37 59.4046 439.37 59.7417C439.37 60.0787 439.314 60.399 439.201 60.7024Z" fill="#FF2D20"/>
<path d="M461.373 51.8711H459.535V63.6689H461.373V51.8711Z" fill="#FF2D20"/>
<path d="M427.717 63.6686H429.555V57.6222H432.709V55.8147H427.717V63.6686Z" fill="#FF2D20"/>
<path d="M448.578 55.8147L446.267 61.829L443.957 55.8147H442.095L445.112 63.6686H447.422L450.44 55.8147H448.578Z" fill="#FF2D20"/>
<path d="M454.448 55.6125C452.197 55.6125 450.416 57.4612 450.416 59.7415C450.416 62.2623 452.14 63.8706 454.684 63.8706C456.108 63.8706 457.017 63.3265 458.127 62.1417L456.885 61.1814C456.885 61.1824 455.948 62.4113 454.549 62.4113C452.924 62.4113 452.24 61.1016 452.24 60.424H458.338C458.658 57.8294 456.951 55.6125 454.448 55.6125ZM452.244 59.0589C452.259 58.9078 452.47 57.0716 454.434 57.0716C456.397 57.0716 456.636 58.9076 456.65 59.0589H452.244Z" fill="#FF2D20"/>
<path d="M248.772 41.758H254.442L242.562 70H237.486L232.41 57.256L227.334 70H222.258L210.324 41.758H215.994L225.066 64.222L229.062 53.8L224.202 41.812H229.224L232.41 50.614L235.542 41.812H240.564L235.758 53.8L239.754 64.222L248.772 41.758ZM255.651 61.738C255.651 59.938 256.155 58.372 257.163 57.04C258.207 55.672 259.629 54.628 261.429 53.908C263.229 53.152 265.317 52.774 267.693 52.774C268.953 52.774 270.231 52.864 271.527 53.044C272.859 53.224 274.029 53.512 275.037 53.908V52.126C275.037 50.146 274.443 48.598 273.255 47.482C272.067 46.366 270.357 45.808 268.125 45.808C266.541 45.808 265.047 46.096 263.643 46.672C262.239 47.212 260.745 47.986 259.161 48.994L257.163 44.998C259.035 43.738 260.907 42.802 262.779 42.19C264.687 41.578 266.685 41.272 268.773 41.272C272.553 41.272 275.523 42.28 277.683 44.296C279.879 46.276 280.977 49.102 280.977 52.774V63.304C280.977 63.988 281.085 64.474 281.301 64.762C281.553 65.05 281.967 65.212 282.543 65.248V70C282.003 70.108 281.517 70.18 281.085 70.216C280.653 70.252 280.293 70.27 280.005 70.27C278.745 70.27 277.791 69.964 277.143 69.352C276.495 68.74 276.117 68.02 276.009 67.192L275.847 65.572C274.623 67.156 273.057 68.38 271.149 69.244C269.241 70.108 267.315 70.54 265.371 70.54C263.499 70.54 261.825 70.162 260.349 69.406C258.873 68.614 257.721 67.552 256.893 66.22C256.065 64.888 255.651 63.394 255.651 61.738ZM273.633 63.466C274.065 62.998 274.407 62.53 274.659 62.062C274.911 61.594 275.037 61.18 275.037 60.82V57.58C274.029 57.184 272.967 56.896 271.851 56.716C270.735 56.5 269.637 56.392 268.557 56.392C266.397 56.392 264.633 56.824 263.265 57.688C261.933 58.552 261.267 59.74 261.267 61.252C261.267 62.08 261.483 62.872 261.915 63.628C262.383 64.384 263.031 64.996 263.859 65.464C264.723 65.932 265.785 66.166 267.045 66.166C268.341 66.166 269.583 65.914 270.771 65.41C271.959 64.906 272.913 64.258 273.633 63.466ZM295.118 70L284.372 41.758H290.528L298.574 64.492L306.62 41.758H312.344L301.598 70H295.118ZM328.456 70.54C326.26 70.54 324.262 70.162 322.462 69.406C320.698 68.614 319.168 67.552 317.872 66.22C316.576 64.852 315.568 63.304 314.848 61.576C314.164 59.812 313.822 57.94 313.822 55.96C313.822 53.296 314.434 50.866 315.658 48.67C316.882 46.438 318.592 44.656 320.788 43.324C322.984 41.956 325.558 41.272 328.51 41.272C331.462 41.272 334 41.956 336.124 43.324C338.284 44.656 339.958 46.42 341.146 48.616C342.334 50.812 342.928 53.17 342.928 55.69C342.928 56.122 342.91 56.536 342.874 56.932C342.838 57.292 342.802 57.598 342.766 57.85H320.14C320.248 59.506 320.698 60.964 321.49 62.224C322.318 63.448 323.362 64.42 324.622 65.14C325.882 65.824 327.232 66.166 328.672 66.166C330.256 66.166 331.75 65.77 333.154 64.978C334.594 64.186 335.566 63.142 336.07 61.846L341.146 63.304C340.534 64.672 339.598 65.914 338.338 67.03C337.114 68.11 335.656 68.974 333.964 69.622C332.272 70.234 330.436 70.54 328.456 70.54ZM319.978 53.908H337.042C336.934 52.288 336.466 50.866 335.638 49.642C334.846 48.382 333.82 47.41 332.56 46.726C331.336 46.006 329.968 45.646 328.456 45.646C326.98 45.646 325.612 46.006 324.352 46.726C323.128 47.41 322.12 48.382 321.328 49.642C320.536 50.866 320.086 52.288 319.978 53.908Z" fill="black"/>
<g filter="url(#filter0_ddii_3740_27060)">
<rect x="126" y="14" width="72" height="72" rx="36" fill="url(#paint0_linear_3740_27060)"/>
<path d="M181.707 53.92C180.997 57.4886 179.333 60.7911 176.9 63.48C176.528 63.8915 175.89 63.8899 175.498 63.4975L173.366 61.3663C172.974 60.974 172.977 60.34 173.342 59.9225C175.663 57.2717 177.07 53.8001 177.07 50C177.07 41.6772 170.323 34.9302 162 34.9302C153.677 34.9302 146.93 41.6772 146.93 50C146.93 53.8001 148.337 57.2717 150.658 59.9225C151.023 60.34 151.026 60.974 150.634 61.3663L148.502 63.4975C148.11 63.8899 147.472 63.8915 147.1 63.48C144.667 60.7911 143.003 57.4886 142.293 53.92C141.518 50.0223 141.916 45.9823 143.436 42.3107C144.957 38.6392 147.533 35.5011 150.837 33.2933C154.141 31.0854 158.026 29.907 162 29.907C165.974 29.907 169.859 31.0854 173.163 33.2933C176.467 35.5011 179.043 38.6392 180.564 42.3107C182.084 45.9823 182.482 50.0223 181.707 53.92Z" fill="white"/>
<path d="M164.021 56.7371C163.862 56.2058 163.301 55.9132 162.751 55.9816C162.505 56.0122 162.254 56.0279 162 56.0279C161.746 56.0279 161.495 56.0122 161.249 55.9816C160.699 55.9132 160.138 56.2058 159.979 56.7371L156.36 68.7997C156.167 69.4443 156.649 70.093 157.322 70.093H166.678C167.351 70.093 167.833 69.4443 167.64 68.7997L164.021 56.7371Z" fill="white"/>
<path d="M172.839 52.156C172.478 53.9702 171.669 55.6594 170.492 57.0727C170.136 57.499 169.496 57.4963 169.104 57.104L166.973 54.9728C166.58 54.5804 166.589 53.9482 166.911 53.4965C167.614 52.5104 168.028 51.3035 168.028 50C168.028 46.6709 165.329 43.9721 162 43.9721C158.671 43.9721 155.972 46.6709 155.972 50C155.972 51.3035 156.386 52.5104 157.089 53.4965C157.411 53.9482 157.42 54.5804 157.027 54.9728L154.896 57.104C154.504 57.4963 153.864 57.499 153.508 57.0727C152.331 55.6594 151.522 53.9702 151.161 52.156C150.735 50.0123 150.954 47.7902 151.79 45.7709C152.626 43.7516 154.043 42.0256 155.86 40.8113C157.678 39.597 159.814 38.9488 162 38.9488C164.186 38.9488 166.322 39.597 168.14 40.8113C169.957 42.0256 171.374 43.7516 172.21 45.7709C173.046 47.7902 173.265 50.0123 172.839 52.156Z" fill="white"/>
</g>
<defs>
<filter id="filter0_ddii_3740_27060" x="124" y="12" width="78" height="78" filterUnits="userSpaceOnUse" color-interpolation-filters="sRGB">
<feFlood flood-opacity="0" result="BackgroundImageFix"/>
<feColorMatrix in="SourceAlpha" type="matrix" values="0 0 0 0 0 0 0 0 0 0 0 0 0 0 0 0 0 0 127 0" result="hardAlpha"/>
<feOffset dx="1" dy="1"/>
<feGaussianBlur stdDeviation="1"/>
<feColorMatrix type="matrix" values="0 0 0 0 0.113725 0 0 0 0 0.305882 0 0 0 0 0.847059 0 0 0 0.08 0"/>
<feBlend mode="normal" in2="BackgroundImageFix" result="effect1_dropShadow_3740_27060"/>
<feColorMatrix in="SourceAlpha" type="matrix" values="0 0 0 0 0 0 0 0 0 0 0 0 0 0 0 0 0 0 127 0" result="hardAlpha"/>
<feOffset dx="1" dy="1"/>
<feGaussianBlur stdDeviation="1.5"/>
<feColorMatrix type="matrix" values="0 0 0 0 0.113725 0 0 0 0 0.305882 0 0 0 0 0.847059 0 0 0 0.16 0"/>
<feBlend mode="normal" in2="effect1_dropShadow_3740_27060" result="effect2_dropShadow_3740_27060"/>
<feBlend mode="normal" in="SourceGraphic" in2="effect2_dropShadow_3740_27060" result="shape"/>
<feColorMatrix in="SourceAlpha" type="matrix" values="0 0 0 0 0 0 0 0 0 0 0 0 0 0 0 0 0 0 127 0" result="hardAlpha"/>
<feOffset dx="1" dy="2"/>
<feGaussianBlur stdDeviation="1"/>
<feComposite in2="hardAlpha" operator="arithmetic" k2="-1" k3="1"/>
<feColorMatrix type="matrix" values="0 0 0 0 0.486275 0 0 0 0 0.67451 0 0 0 0 0.92549 0 0 0 1 0"/>
<feBlend mode="normal" in2="shape" result="effect3_innerShadow_3740_27060"/>
<feColorMatrix in="SourceAlpha" type="matrix" values="0 0 0 0 0 0 0 0 0 0 0 0 0 0 0 0 0 0 127 0" result="hardAlpha"/>
<feOffset dx="-1" dy="-2"/>
<feGaussianBlur stdDeviation="1"/>
<feComposite in2="hardAlpha" operator="arithmetic" k2="-1" k3="1"/>
<feColorMatrix type="matrix" values="0 0 0 0 0.149643 0 0 0 0 0.297293 0 0 0 0 0.779326 0 0 0 1 0"/>
<feBlend mode="normal" in2="effect3_innerShadow_3740_27060" result="effect4_innerShadow_3740_27060"/>
</filter>
<linearGradient id="paint0_linear_3740_27060" x1="192.5" y1="70.5" x2="120" y2="6.5" gradientUnits="userSpaceOnUse">
<stop stop-color="#1D4ED8"/>
<stop offset="1" stop-color="#60A5FA"/>
</linearGradient>
</defs>
</svg>
