<svg width="350" height="100" viewBox="0 0 350 100" fill="none" xmlns="http://www.w3.org/2000/svg">
<path d="M129.772 41.758H135.442L123.562 70H118.486L113.41 57.256L108.334 70H103.258L91.324 41.758H96.994L106.066 64.222L110.062 53.8L105.202 41.812H110.224L113.41 50.614L116.542 41.812H121.564L116.758 53.8L120.754 64.222L129.772 41.758ZM136.651 61.738C136.651 59.938 137.155 58.372 138.163 57.04C139.207 55.672 140.629 54.628 142.429 53.908C144.229 53.152 146.317 52.774 148.693 52.774C149.953 52.774 151.231 52.864 152.527 53.044C153.859 53.224 155.029 53.512 156.037 53.908V52.126C156.037 50.146 155.443 48.598 154.255 47.482C153.067 46.366 151.357 45.808 149.125 45.808C147.541 45.808 146.047 46.096 144.643 46.672C143.239 47.212 141.745 47.986 140.161 48.994L138.163 44.998C140.035 43.738 141.907 42.802 143.779 42.19C145.687 41.578 147.685 41.272 149.773 41.272C153.553 41.272 156.523 42.28 158.683 44.296C160.879 46.276 161.977 49.102 161.977 52.774V63.304C161.977 63.988 162.085 64.474 162.301 64.762C162.553 65.05 162.967 65.212 163.543 65.248V70C163.003 70.108 162.517 70.18 162.085 70.216C161.653 70.252 161.293 70.27 161.005 70.27C159.745 70.27 158.791 69.964 158.143 69.352C157.495 68.74 157.117 68.02 157.009 67.192L156.847 65.572C155.623 67.156 154.057 68.38 152.149 69.244C150.241 70.108 148.315 70.54 146.371 70.54C144.499 70.54 142.825 70.162 141.349 69.406C139.873 68.614 138.721 67.552 137.893 66.22C137.065 64.888 136.651 63.394 136.651 61.738ZM154.633 63.466C155.065 62.998 155.407 62.53 155.659 62.062C155.911 61.594 156.037 61.18 156.037 60.82V57.58C155.029 57.184 153.967 56.896 152.851 56.716C151.735 56.5 150.637 56.392 149.557 56.392C147.397 56.392 145.633 56.824 144.265 57.688C142.933 58.552 142.267 59.74 142.267 61.252C142.267 62.08 142.483 62.872 142.915 63.628C143.383 64.384 144.031 64.996 144.859 65.464C145.723 65.932 146.785 66.166 148.045 66.166C149.341 66.166 150.583 65.914 151.771 65.41C152.959 64.906 153.913 64.258 154.633 63.466ZM176.118 70L165.372 41.758H171.528L179.574 64.492L187.62 41.758H193.344L182.598 70H176.118ZM209.456 70.54C207.26 70.54 205.262 70.162 203.462 69.406C201.698 68.614 200.168 67.552 198.872 66.22C197.576 64.852 196.568 63.304 195.848 61.576C195.164 59.812 194.822 57.94 194.822 55.96C194.822 53.296 195.434 50.866 196.658 48.67C197.882 46.438 199.592 44.656 201.788 43.324C203.984 41.956 206.558 41.272 209.51 41.272C212.462 41.272 215 41.956 217.124 43.324C219.284 44.656 220.958 46.42 222.146 48.616C223.334 50.812 223.928 53.17 223.928 55.69C223.928 56.122 223.91 56.536 223.874 56.932C223.838 57.292 223.802 57.598 223.766 57.85H201.14C201.248 59.506 201.698 60.964 202.49 62.224C203.318 63.448 204.362 64.42 205.622 65.14C206.882 65.824 208.232 66.166 209.672 66.166C211.256 66.166 212.75 65.77 214.154 64.978C215.594 64.186 216.566 63.142 217.07 61.846L222.146 63.304C221.534 64.672 220.598 65.914 219.338 67.03C218.114 68.11 216.656 68.974 214.964 69.622C213.272 70.234 211.436 70.54 209.456 70.54ZM200.978 53.908H218.042C217.934 52.288 217.466 50.866 216.638 49.642C215.846 48.382 214.82 47.41 213.56 46.726C212.336 46.006 210.968 45.646 209.456 45.646C207.98 45.646 206.612 46.006 205.352 46.726C204.128 47.41 203.12 48.382 202.328 49.642C201.536 50.866 201.086 52.288 200.978 53.908Z" fill="black"/>
<g filter="url(#filter0_ddii_3740_27060)">
<rect x="7" y="14" width="72" height="72" rx="36" fill="url(#paint0_linear_3740_27060)"/>
<path d="M62.707 53.92C61.9971 57.4886 60.333 60.7911 57.9003 63.48C57.5281 63.8915 56.8899 63.8899 56.4975 63.4975L54.3663 61.3663C53.974 60.974 53.9768 60.34 54.3423 59.9225C56.6632 57.2717 58.0698 53.8001 58.0698 50C58.0698 41.6772 51.3228 34.9302 43 34.9302C34.6772 34.9302 27.9302 41.6772 27.9302 50C27.9302 53.8001 29.3368 57.2717 31.6577 59.9225C32.0232 60.34 32.026 60.974 31.6337 61.3663L29.5025 63.4975C29.1102 63.8899 28.472 63.8915 28.0997 63.48C25.667 60.7911 24.0029 57.4886 23.2931 53.92C22.5178 50.0223 22.9157 45.9823 24.4365 42.3107C25.9573 38.6392 28.5326 35.5011 31.8369 33.2933C35.1412 31.0854 39.026 29.907 43 29.907C46.974 29.907 50.8588 31.0854 54.1631 33.2933C57.4674 35.5011 60.0428 38.6392 61.5635 42.3107C63.0843 45.9823 63.4823 50.0223 62.707 53.92Z" fill="white"/>
<path d="M45.0211 56.7371C44.8617 56.2058 44.3014 55.9132 43.7509 55.9816C43.5049 56.0122 43.2543 56.0279 43 56.0279C42.7457 56.0279 42.4951 56.0122 42.2491 55.9816C41.6986 55.9132 41.1383 56.2058 40.9789 56.7371L37.3601 68.7997C37.1667 69.4443 37.6494 70.093 38.3224 70.093H47.6776C48.3506 70.093 48.8333 69.4443 48.6399 68.7997L45.0211 56.7371Z" fill="white"/>
<path d="M53.8388 52.156C53.4779 53.9702 52.6686 55.6594 51.4915 57.0727C51.1364 57.499 50.4963 57.4963 50.104 57.104L47.9728 54.9728C47.5804 54.5804 47.5886 53.9482 47.9108 53.4965C48.6142 52.5104 49.0279 51.3035 49.0279 50C49.0279 46.6709 46.3291 43.9721 43 43.9721C39.6709 43.9721 36.9721 46.6709 36.9721 50C36.9721 51.3035 37.3859 52.5104 38.0892 53.4965C38.4114 53.9482 38.4196 54.5804 38.0272 54.9728L35.896 57.104C35.5037 57.4963 34.8636 57.499 34.5085 57.0727C33.3314 55.6594 32.5221 53.9702 32.1612 52.156C31.7348 50.0123 31.9536 47.7902 32.7901 45.7709C33.6265 43.7516 35.043 42.0256 36.8603 40.8113C38.6777 39.597 40.8143 38.9488 43 38.9488C45.1857 38.9488 47.3223 39.597 49.1397 40.8113C50.9571 42.0256 52.3735 43.7516 53.2099 45.7709C54.0464 47.7902 54.2652 50.0123 53.8388 52.156Z" fill="white"/>
</g>
<path d="M262 53L254 49L246 53M262 53L254 57M262 53V63L254 67M254 57L246 53M254 57V67M246 53V63L254 67" stroke="#FF2D20" stroke-width="1.5" stroke-linejoin="round"/>
<path d="M274.474 55.8636V56.858H270.358V55.8636H274.474ZM271.591 63.5V54.8097C271.591 54.3722 271.694 54.0076 271.899 53.7159C272.105 53.4242 272.371 53.2055 272.7 53.0597C273.028 52.9138 273.374 52.8409 273.739 52.8409C274.027 52.8409 274.262 52.8641 274.445 52.9105C274.627 52.9569 274.763 53 274.852 53.0398L274.514 54.054C274.455 54.0341 274.372 54.0092 274.266 53.9794C274.163 53.9496 274.027 53.9347 273.858 53.9347C273.47 53.9347 273.19 54.0324 273.018 54.228C272.849 54.4235 272.764 54.7102 272.764 55.0881V63.5H271.591Z" fill="#FF2D20"/>
<path d="M278.907 63.6591C278.217 63.6591 277.612 63.495 277.092 63.1669C276.575 62.8388 276.171 62.3797 275.879 61.7898C275.591 61.1998 275.446 60.5104 275.446 59.7216C275.446 58.9261 275.591 58.2318 275.879 57.6385C276.171 57.0452 276.575 56.5845 277.092 56.2564C277.612 55.9283 278.217 55.7642 278.907 55.7642C279.596 55.7642 280.199 55.9283 280.716 56.2564C281.237 56.5845 281.641 57.0452 281.929 57.6385C282.221 58.2318 282.367 58.9261 282.367 59.7216C282.367 60.5104 282.221 61.1998 281.929 61.7898C281.641 62.3797 281.237 62.8388 280.716 63.1669C280.199 63.495 279.596 63.6591 278.907 63.6591ZM278.907 62.6051C279.43 62.6051 279.861 62.4709 280.199 62.2024C280.537 61.934 280.788 61.581 280.95 61.1435C281.112 60.706 281.194 60.232 281.194 59.7216C281.194 59.2112 281.112 58.7356 280.95 58.2947C280.788 57.8539 280.537 57.4976 280.199 57.2259C279.861 56.9541 279.43 56.8182 278.907 56.8182C278.383 56.8182 277.952 56.9541 277.614 57.2259C277.276 57.4976 277.026 57.8539 276.863 58.2947C276.701 58.7356 276.62 59.2112 276.62 59.7216C276.62 60.232 276.701 60.706 276.863 61.1435C277.026 61.581 277.276 61.934 277.614 62.2024C277.952 62.4709 278.383 62.6051 278.907 62.6051Z" fill="#FF2D20"/>
<path d="M284.158 63.5V55.8636H285.291V57.017H285.371C285.51 56.6392 285.762 56.3326 286.127 56.0973C286.491 55.862 286.902 55.7443 287.36 55.7443C287.446 55.7443 287.553 55.746 287.683 55.7493C287.812 55.7526 287.91 55.7576 287.976 55.7642V56.9574C287.936 56.9474 287.845 56.9325 287.703 56.9126C287.563 56.8894 287.416 56.8778 287.26 56.8778C286.889 56.8778 286.557 56.9557 286.266 57.1115C285.977 57.264 285.749 57.4761 285.58 57.7479C285.414 58.0163 285.331 58.3229 285.331 58.6676V63.5H284.158Z" fill="#FF2D20"/>
<path d="M294.925 52H293V63.549H298.54V61.8497H294.925V52Z" fill="#FF2D20"/>
<path d="M305.365 57.1531C305.119 56.7681 304.771 56.4657 304.319 56.2457C303.867 56.0257 303.412 55.9156 302.955 55.9156C302.363 55.9156 301.822 56.0229 301.331 56.2374C300.84 56.4518 300.419 56.7463 300.068 57.1201C299.716 57.4941 299.443 57.9259 299.248 58.4151C299.052 58.9047 298.955 59.4191 298.955 59.9579C298.955 60.508 299.052 61.0249 299.248 61.5087C299.443 61.9929 299.716 62.4219 300.068 62.7956C300.419 63.1697 300.84 63.4638 301.331 63.6783C301.822 63.8927 302.363 64 302.955 64C303.412 64 303.867 63.8899 304.319 63.6701C304.771 63.4502 305.119 63.1478 305.365 62.7627V63.8021H307.189V56.1137H305.365V57.1531ZM305.198 60.8982C305.086 61.1953 304.93 61.4537 304.729 61.6737C304.528 61.8938 304.285 62.0697 304.001 62.2017C303.716 62.3337 303.401 62.3996 303.055 62.3996C302.709 62.3996 302.397 62.3337 302.118 62.2017C301.839 62.0696 301.599 61.8938 301.398 61.6737C301.197 61.4537 301.044 61.1953 300.938 60.8982C300.832 60.6013 300.779 60.2878 300.779 59.9579C300.779 59.6279 300.832 59.3143 300.938 59.0174C301.044 58.7205 301.197 58.4621 301.398 58.2421C301.599 58.0222 301.839 57.846 302.118 57.7141C302.397 57.582 302.709 57.5161 303.055 57.5161C303.401 57.5161 303.716 57.582 304.001 57.7141C304.285 57.8461 304.528 58.0222 304.729 58.2421C304.93 58.4621 305.086 58.7205 305.198 59.0174C305.309 59.3143 305.365 59.6279 305.365 59.9579C305.365 60.2878 305.309 60.6013 305.198 60.8982Z" fill="#FF2D20"/>
<path d="M320.163 56.8999C319.918 56.5149 319.569 56.2125 319.117 55.9925C318.665 55.7725 318.211 55.6624 317.753 55.6624C317.161 55.6624 316.621 55.7697 316.13 55.9842C315.639 56.1986 315.217 56.4931 314.866 56.8669C314.514 57.2409 314.241 57.6727 314.046 58.1619C313.85 58.6515 313.753 59.1659 313.753 59.7047C313.753 60.2548 313.85 60.7717 314.046 61.2555C314.241 61.7397 314.514 62.1687 314.866 62.5424C315.217 62.9165 315.638 63.2106 316.13 63.4251C316.62 63.6395 317.161 63.7468 317.753 63.7468C318.211 63.7468 318.665 63.6367 319.117 63.4169C319.569 63.197 319.918 62.8946 320.163 62.5095V63.5489H321.987V55.8605H320.163V56.8999ZM319.996 60.645C319.884 60.9421 319.728 61.2005 319.527 61.4205C319.326 61.6406 319.084 61.8165 318.799 61.9485C318.514 62.0805 318.199 62.1464 317.853 62.1464C317.507 62.1464 317.195 62.0805 316.916 61.9485C316.637 61.8164 316.397 61.6406 316.196 61.4205C315.996 61.2005 315.842 60.9421 315.736 60.645C315.63 60.3481 315.577 60.0346 315.577 59.7047C315.577 59.3747 315.63 59.0611 315.736 58.7642C315.842 58.4673 315.996 58.2089 316.196 57.9888C316.397 57.769 316.637 57.5928 316.916 57.4609C317.195 57.3288 317.507 57.2629 317.853 57.2629C318.199 57.2629 318.514 57.3288 318.799 57.4609C319.084 57.5929 319.326 57.769 319.527 57.9888C319.728 58.2089 319.884 58.4673 319.996 58.7642C320.107 59.0611 320.163 59.3747 320.163 59.7047C320.163 60.0346 320.107 60.3481 319.996 60.645Z" fill="#FF2D20"/>
<path d="M342 52H340.176V63.549H342V52Z" fill="#FF2D20"/>
<path d="M308.599 63.5487H310.423V57.6298H313.553V55.8604H308.599V63.5487Z" fill="#FF2D20"/>
<path d="M329.301 55.8604L327.008 61.748L324.715 55.8604H322.868L325.862 63.5487H328.155L331.149 55.8604H329.301Z" fill="#FF2D20"/>
<path d="M335.127 55.6624C332.894 55.6624 331.125 57.4722 331.125 59.7044C331.125 62.1721 332.837 63.7464 335.361 63.7464C336.774 63.7464 337.676 63.2139 338.778 62.054L337.546 61.114C337.545 61.1149 336.616 62.318 335.228 62.318C333.615 62.318 332.935 61.0359 332.935 60.3725H338.987C339.305 57.8326 337.611 55.6624 335.127 55.6624ZM332.94 59.0362C332.954 58.8883 333.164 57.0908 335.113 57.0908C337.062 57.0908 337.298 58.8881 337.312 59.0362H332.94Z" fill="#FF2D20"/>
<defs>
<filter id="filter0_ddii_3740_27060" x="5" y="12" width="78" height="78" filterUnits="userSpaceOnUse" color-interpolation-filters="sRGB">
<feFlood flood-opacity="0" result="BackgroundImageFix"/>
<feColorMatrix in="SourceAlpha" type="matrix" values="0 0 0 0 0 0 0 0 0 0 0 0 0 0 0 0 0 0 127 0" result="hardAlpha"/>
<feOffset dx="1" dy="1"/>
<feGaussianBlur stdDeviation="1"/>
<feColorMatrix type="matrix" values="0 0 0 0 0.113725 0 0 0 0 0.305882 0 0 0 0 0.847059 0 0 0 0.08 0"/>
<feBlend mode="normal" in2="BackgroundImageFix" result="effect1_dropShadow_3740_27060"/>
<feColorMatrix in="SourceAlpha" type="matrix" values="0 0 0 0 0 0 0 0 0 0 0 0 0 0 0 0 0 0 127 0" result="hardAlpha"/>
<feOffset dx="1" dy="1"/>
<feGaussianBlur stdDeviation="1.5"/>
<feColorMatrix type="matrix" values="0 0 0 0 0.113725 0 0 0 0 0.305882 0 0 0 0 0.847059 0 0 0 0.16 0"/>
<feBlend mode="normal" in2="effect1_dropShadow_3740_27060" result="effect2_dropShadow_3740_27060"/>
<feBlend mode="normal" in="SourceGraphic" in2="effect2_dropShadow_3740_27060" result="shape"/>
<feColorMatrix in="SourceAlpha" type="matrix" values="0 0 0 0 0 0 0 0 0 0 0 0 0 0 0 0 0 0 127 0" result="hardAlpha"/>
<feOffset dx="1" dy="2"/>
<feGaussianBlur stdDeviation="1"/>
<feComposite in2="hardAlpha" operator="arithmetic" k2="-1" k3="1"/>
<feColorMatrix type="matrix" values="0 0 0 0 0.486275 0 0 0 0 0.67451 0 0 0 0 0.92549 0 0 0 1 0"/>
<feBlend mode="normal" in2="shape" result="effect3_innerShadow_3740_27060"/>
<feColorMatrix in="SourceAlpha" type="matrix" values="0 0 0 0 0 0 0 0 0 0 0 0 0 0 0 0 0 0 127 0" result="hardAlpha"/>
<feOffset dx="-1" dy="-2"/>
<feGaussianBlur stdDeviation="1"/>
<feComposite in2="hardAlpha" operator="arithmetic" k2="-1" k3="1"/>
<feColorMatrix type="matrix" values="0 0 0 0 0.149643 0 0 0 0 0.297293 0 0 0 0 0.779326 0 0 0 1 0"/>
<feBlend mode="normal" in2="effect3_innerShadow_3740_27060" result="effect4_innerShadow_3740_27060"/>
</filter>
<linearGradient id="paint0_linear_3740_27060" x1="73.5" y1="70.5" x2="1" y2="6.5" gradientUnits="userSpaceOnUse">
<stop stop-color="#1D4ED8"/>
<stop offset="1" stop-color="#60A5FA"/>
</linearGradient>
</defs>
</svg>
