<svg width="470" height="100" viewBox="0 0 470 100" fill="none" xmlns="http://www.w3.org/2000/svg">
<path d="M381 53L373 49L365 53M381 53L373 57M381 53V63L373 67M373 57L365 53M373 57V67M365 53V63L373 67" stroke="#FF2D20" stroke-width="1.5" stroke-linejoin="round"/>
<path d="M393.634 56.3636V57.5568H389.318V56.3636H393.634ZM390.501 64V55.4787C390.501 55.0014 390.606 54.6053 390.815 54.2905C391.023 53.9723 391.3 53.7353 391.645 53.5795C391.99 53.4205 392.364 53.3409 392.768 53.3409C393.067 53.3409 393.322 53.3658 393.534 53.4155C393.746 53.4619 393.904 53.505 394.006 53.5447L393.658 54.7479C393.589 54.728 393.499 54.7048 393.39 54.6783C393.281 54.6484 393.148 54.6335 392.992 54.6335C392.631 54.6335 392.372 54.723 392.217 54.902C392.064 55.081 391.988 55.3395 391.988 55.6776V64H390.501ZM398.083 64.1541C397.367 64.1541 396.742 63.9901 396.209 63.6619C395.675 63.3338 395.261 62.8748 394.966 62.2848C394.671 61.6948 394.523 61.0054 394.523 60.2166C394.523 59.4245 394.671 58.7318 394.966 58.1385C395.261 57.5452 395.675 57.0845 396.209 56.7564C396.742 56.4283 397.367 56.2642 398.083 56.2642C398.799 56.2642 399.424 56.4283 399.957 56.7564C400.491 57.0845 400.905 57.5452 401.2 58.1385C401.495 58.7318 401.643 59.4245 401.643 60.2166C401.643 61.0054 401.495 61.6948 401.2 62.2848C400.905 62.8748 400.491 63.3338 399.957 63.6619C399.424 63.9901 398.799 64.1541 398.083 64.1541ZM398.088 62.9062C398.552 62.9062 398.937 62.7836 399.241 62.5384C399.546 62.2931 399.772 61.9666 399.918 61.5589C400.067 61.1513 400.141 60.7022 400.141 60.2116C400.141 59.7244 400.067 59.277 399.918 58.8693C399.772 58.4583 399.546 58.1286 399.241 57.88C398.937 57.6314 398.552 57.5071 398.088 57.5071C397.621 57.5071 397.233 57.6314 396.925 57.88C396.62 58.1286 396.393 58.4583 396.244 58.8693C396.098 59.277 396.025 59.7244 396.025 60.2116C396.025 60.7022 396.098 61.1513 396.244 61.5589C396.393 61.9666 396.62 62.2931 396.925 62.5384C397.233 62.7836 397.621 62.9062 398.088 62.9062ZM403.302 64V56.3636H404.739V57.5767H404.818C404.958 57.1657 405.203 56.8426 405.554 56.6072C405.909 56.3686 406.31 56.2493 406.757 56.2493C406.85 56.2493 406.959 56.2526 407.085 56.2592C407.215 56.2659 407.316 56.2741 407.389 56.2841V57.706C407.329 57.6894 407.223 57.6712 407.07 57.6513C406.918 57.6281 406.766 57.6165 406.613 57.6165C406.262 57.6165 405.949 57.6911 405.673 57.8402C405.402 57.986 405.186 58.1899 405.027 58.4517C404.868 58.7102 404.789 59.0052 404.789 59.3366V64H403.302Z" fill="#FF2D20"/>
<path d="M414.939 52H413V63.7978H418.582V62.0618H414.939V52Z" fill="#FF2D20"/>
<path d="M425.428 57.0054C425.181 56.6122 424.829 56.3033 424.374 56.0785C423.919 55.8538 423.461 55.7414 423 55.7414C422.404 55.7414 421.858 55.8509 421.364 56.07C420.869 56.2891 420.445 56.5899 420.09 56.9718C419.736 57.3538 419.461 57.7949 419.264 58.2947C419.067 58.7948 418.969 59.3203 418.969 59.8707C418.969 60.4326 419.067 60.9606 419.264 61.4549C419.461 61.9495 419.736 62.3877 420.09 62.7695C420.445 63.1516 420.869 63.4521 421.364 63.6712C421.858 63.8902 422.404 63.9998 423 63.9998C423.461 63.9998 423.919 63.8874 424.374 63.6628C424.829 63.4382 425.181 63.1293 425.428 62.7359V63.7977H427.266V55.9437H425.428V57.0054ZM425.259 60.8313C425.147 61.1347 424.99 61.3987 424.787 61.6234C424.585 61.8482 424.34 62.028 424.054 62.1628C423.767 62.2977 423.449 62.365 423.101 62.365C422.752 62.365 422.437 62.2977 422.156 62.1628C421.875 62.0279 421.634 61.8482 421.431 61.6234C421.229 61.3987 421.074 61.1347 420.967 60.8313C420.86 60.5279 420.807 60.2076 420.807 59.8707C420.807 59.5335 420.86 59.2133 420.967 58.9099C421.074 58.6066 421.229 58.3427 421.431 58.1179C421.634 57.8933 421.875 57.7133 422.156 57.5785C422.437 57.4436 422.752 57.3763 423.101 57.3763C423.449 57.3763 423.767 57.4436 424.054 57.5785C424.34 57.7134 424.585 57.8933 424.787 58.1179C424.99 58.3427 425.147 58.6066 425.259 58.9099C425.372 59.2133 425.428 59.5335 425.428 59.8707C425.428 60.2076 425.372 60.5279 425.259 60.8313Z" fill="#FF2D20"/>
<path d="M440.37 57.0054C440.123 56.6122 439.771 56.3033 439.316 56.0785C438.861 55.8538 438.403 55.7414 437.942 55.7414C437.346 55.7414 436.8 55.8509 436.306 56.07C435.811 56.2891 435.387 56.5899 435.032 56.9718C434.678 57.3538 434.403 57.7949 434.206 58.2947C434.009 58.7948 433.911 59.3203 433.911 59.8707C433.911 60.4326 434.009 60.9606 434.206 61.4549C434.403 61.9495 434.678 62.3877 435.032 62.7695C435.387 63.1516 435.811 63.4521 436.306 63.6712C436.8 63.8902 437.346 63.9998 437.942 63.9998C438.403 63.9998 438.861 63.8874 439.316 63.6628C439.771 63.4382 440.123 63.1293 440.37 62.7359V63.7977H442.208V55.9437H440.37V57.0054ZM440.201 60.8313C440.089 61.1347 439.932 61.3987 439.729 61.6234C439.527 61.8482 439.282 62.028 438.996 62.1628C438.709 62.2977 438.391 62.365 438.043 62.365C437.694 62.365 437.379 62.2977 437.098 62.1628C436.817 62.0279 436.575 61.8482 436.373 61.6234C436.171 61.3987 436.016 61.1347 435.909 60.8313C435.802 60.5279 435.749 60.2076 435.749 59.8707C435.749 59.5335 435.802 59.2133 435.909 58.9099C436.016 58.6066 436.171 58.3427 436.373 58.1179C436.575 57.8933 436.817 57.7133 437.098 57.5785C437.379 57.4436 437.694 57.3763 438.043 57.3763C438.391 57.3763 438.709 57.4436 438.996 57.5785C439.282 57.7134 439.527 57.8933 439.729 58.1179C439.932 58.3427 440.089 58.6066 440.201 58.9099C440.314 59.2133 440.37 59.5335 440.37 59.8707C440.37 60.2076 440.314 60.5279 440.201 60.8313Z" fill="#FF2D20"/>
<path d="M462.373 52H460.535V63.7978H462.373V52Z" fill="#FF2D20"/>
<path d="M428.717 63.7975H430.556V57.7511H433.709V55.9436H428.717V63.7975Z" fill="#FF2D20"/>
<path d="M449.578 55.9436L447.267 61.9579L444.957 55.9436H443.095L446.112 63.7975H448.422L451.44 55.9436H449.578Z" fill="#FF2D20"/>
<path d="M455.448 55.7414C453.198 55.7414 451.416 57.5901 451.416 59.8704C451.416 62.3912 453.14 63.9995 455.684 63.9995C457.108 63.9995 458.017 63.4554 459.127 62.2706L457.885 61.3103C457.885 61.3113 456.948 62.5403 455.55 62.5403C453.924 62.5403 453.24 61.2305 453.24 60.5529H459.338C459.658 57.9583 457.951 55.7414 455.448 55.7414ZM453.245 59.1878C453.259 59.0367 453.47 57.2005 455.434 57.2005C457.397 57.2005 457.636 59.0365 457.65 59.1878H453.245Z" fill="#FF2D20"/>
<path d="M248.772 41.758H254.442L242.562 70H237.486L232.41 57.256L227.334 70H222.258L210.324 41.758H215.994L225.066 64.222L229.062 53.8L224.202 41.812H229.224L232.41 50.614L235.542 41.812H240.564L235.758 53.8L239.754 64.222L248.772 41.758ZM255.651 61.738C255.651 59.938 256.155 58.372 257.163 57.04C258.207 55.672 259.629 54.628 261.429 53.908C263.229 53.152 265.317 52.774 267.693 52.774C268.953 52.774 270.231 52.864 271.527 53.044C272.859 53.224 274.029 53.512 275.037 53.908V52.126C275.037 50.146 274.443 48.598 273.255 47.482C272.067 46.366 270.357 45.808 268.125 45.808C266.541 45.808 265.047 46.096 263.643 46.672C262.239 47.212 260.745 47.986 259.161 48.994L257.163 44.998C259.035 43.738 260.907 42.802 262.779 42.19C264.687 41.578 266.685 41.272 268.773 41.272C272.553 41.272 275.523 42.28 277.683 44.296C279.879 46.276 280.977 49.102 280.977 52.774V63.304C280.977 63.988 281.085 64.474 281.301 64.762C281.553 65.05 281.967 65.212 282.543 65.248V70C282.003 70.108 281.517 70.18 281.085 70.216C280.653 70.252 280.293 70.27 280.005 70.27C278.745 70.27 277.791 69.964 277.143 69.352C276.495 68.74 276.117 68.02 276.009 67.192L275.847 65.572C274.623 67.156 273.057 68.38 271.149 69.244C269.241 70.108 267.315 70.54 265.371 70.54C263.499 70.54 261.825 70.162 260.349 69.406C258.873 68.614 257.721 67.552 256.893 66.22C256.065 64.888 255.651 63.394 255.651 61.738ZM273.633 63.466C274.065 62.998 274.407 62.53 274.659 62.062C274.911 61.594 275.037 61.18 275.037 60.82V57.58C274.029 57.184 272.967 56.896 271.851 56.716C270.735 56.5 269.637 56.392 268.557 56.392C266.397 56.392 264.633 56.824 263.265 57.688C261.933 58.552 261.267 59.74 261.267 61.252C261.267 62.08 261.483 62.872 261.915 63.628C262.383 64.384 263.031 64.996 263.859 65.464C264.723 65.932 265.785 66.166 267.045 66.166C268.341 66.166 269.583 65.914 270.771 65.41C271.959 64.906 272.913 64.258 273.633 63.466ZM295.118 70L284.372 41.758H290.528L298.574 64.492L306.62 41.758H312.344L301.598 70H295.118ZM328.456 70.54C326.26 70.54 324.262 70.162 322.462 69.406C320.698 68.614 319.168 67.552 317.872 66.22C316.576 64.852 315.568 63.304 314.848 61.576C314.164 59.812 313.822 57.94 313.822 55.96C313.822 53.296 314.434 50.866 315.658 48.67C316.882 46.438 318.592 44.656 320.788 43.324C322.984 41.956 325.558 41.272 328.51 41.272C331.462 41.272 334 41.956 336.124 43.324C338.284 44.656 339.958 46.42 341.146 48.616C342.334 50.812 342.928 53.17 342.928 55.69C342.928 56.122 342.91 56.536 342.874 56.932C342.838 57.292 342.802 57.598 342.766 57.85H320.14C320.248 59.506 320.698 60.964 321.49 62.224C322.318 63.448 323.362 64.42 324.622 65.14C325.882 65.824 327.232 66.166 328.672 66.166C330.256 66.166 331.75 65.77 333.154 64.978C334.594 64.186 335.566 63.142 336.07 61.846L341.146 63.304C340.534 64.672 339.598 65.914 338.338 67.03C337.114 68.11 335.656 68.974 333.964 69.622C332.272 70.234 330.436 70.54 328.456 70.54ZM319.978 53.908H337.042C336.934 52.288 336.466 50.866 335.638 49.642C334.846 48.382 333.82 47.41 332.56 46.726C331.336 46.006 329.968 45.646 328.456 45.646C326.98 45.646 325.612 46.006 324.352 46.726C323.128 47.41 322.12 48.382 321.328 49.642C320.536 50.866 320.086 52.288 319.978 53.908Z" fill="white"/>
<g filter="url(#filter0_ddii_3740_26985)">
<rect x="126" y="14" width="72" height="72" rx="36" fill="url(#paint0_linear_3740_26985)"/>
<path d="M181.707 53.92C180.997 57.4886 179.333 60.7911 176.9 63.48C176.528 63.8915 175.89 63.8899 175.498 63.4975L173.366 61.3663C172.974 60.974 172.977 60.34 173.342 59.9225C175.663 57.2717 177.07 53.8001 177.07 50C177.07 41.6772 170.323 34.9302 162 34.9302C153.677 34.9302 146.93 41.6772 146.93 50C146.93 53.8001 148.337 57.2717 150.658 59.9225C151.023 60.34 151.026 60.974 150.634 61.3663L148.502 63.4975C148.11 63.8899 147.472 63.8915 147.1 63.48C144.667 60.7911 143.003 57.4886 142.293 53.92C141.518 50.0223 141.916 45.9823 143.436 42.3107C144.957 38.6392 147.533 35.5011 150.837 33.2933C154.141 31.0854 158.026 29.907 162 29.907C165.974 29.907 169.859 31.0854 173.163 33.2933C176.467 35.5011 179.043 38.6392 180.564 42.3107C182.084 45.9823 182.482 50.0223 181.707 53.92Z" fill="white"/>
<path d="M164.021 56.7371C163.862 56.2058 163.301 55.9132 162.751 55.9816C162.505 56.0122 162.254 56.0279 162 56.0279C161.746 56.0279 161.495 56.0122 161.249 55.9816C160.699 55.9132 160.138 56.2058 159.979 56.7371L156.36 68.7997C156.167 69.4443 156.649 70.093 157.322 70.093H166.678C167.351 70.093 167.833 69.4443 167.64 68.7997L164.021 56.7371Z" fill="white"/>
<path d="M172.839 52.156C172.478 53.9702 171.669 55.6594 170.492 57.0727C170.136 57.499 169.496 57.4963 169.104 57.104L166.973 54.9728C166.58 54.5804 166.589 53.9482 166.911 53.4965C167.614 52.5104 168.028 51.3035 168.028 50C168.028 46.6709 165.329 43.9721 162 43.9721C158.671 43.9721 155.972 46.6709 155.972 50C155.972 51.3035 156.386 52.5104 157.089 53.4965C157.411 53.9482 157.42 54.5804 157.027 54.9728L154.896 57.104C154.504 57.4963 153.864 57.499 153.508 57.0727C152.331 55.6594 151.522 53.9702 151.161 52.156C150.735 50.0123 150.954 47.7902 151.79 45.7709C152.626 43.7516 154.043 42.0256 155.86 40.8113C157.678 39.597 159.814 38.9488 162 38.9488C164.186 38.9488 166.322 39.597 168.14 40.8113C169.957 42.0256 171.374 43.7516 172.21 45.7709C173.046 47.7902 173.265 50.0123 172.839 52.156Z" fill="white"/>
</g>
<defs>
<filter id="filter0_ddii_3740_26985" x="124" y="12" width="78" height="78" filterUnits="userSpaceOnUse" color-interpolation-filters="sRGB">
<feFlood flood-opacity="0" result="BackgroundImageFix"/>
<feColorMatrix in="SourceAlpha" type="matrix" values="0 0 0 0 0 0 0 0 0 0 0 0 0 0 0 0 0 0 127 0" result="hardAlpha"/>
<feOffset dx="1" dy="1"/>
<feGaussianBlur stdDeviation="1"/>
<feColorMatrix type="matrix" values="0 0 0 0 0.113725 0 0 0 0 0.305882 0 0 0 0 0.847059 0 0 0 0.08 0"/>
<feBlend mode="normal" in2="BackgroundImageFix" result="effect1_dropShadow_3740_26985"/>
<feColorMatrix in="SourceAlpha" type="matrix" values="0 0 0 0 0 0 0 0 0 0 0 0 0 0 0 0 0 0 127 0" result="hardAlpha"/>
<feOffset dx="1" dy="1"/>
<feGaussianBlur stdDeviation="1.5"/>
<feColorMatrix type="matrix" values="0 0 0 0 0.113725 0 0 0 0 0.305882 0 0 0 0 0.847059 0 0 0 0.16 0"/>
<feBlend mode="normal" in2="effect1_dropShadow_3740_26985" result="effect2_dropShadow_3740_26985"/>
<feBlend mode="normal" in="SourceGraphic" in2="effect2_dropShadow_3740_26985" result="shape"/>
<feColorMatrix in="SourceAlpha" type="matrix" values="0 0 0 0 0 0 0 0 0 0 0 0 0 0 0 0 0 0 127 0" result="hardAlpha"/>
<feOffset dx="1" dy="2"/>
<feGaussianBlur stdDeviation="1"/>
<feComposite in2="hardAlpha" operator="arithmetic" k2="-1" k3="1"/>
<feColorMatrix type="matrix" values="0 0 0 0 0.486032 0 0 0 0 0.67423 0 0 0 0 0.92516 0 0 0 1 0"/>
<feBlend mode="normal" in2="shape" result="effect3_innerShadow_3740_26985"/>
<feColorMatrix in="SourceAlpha" type="matrix" values="0 0 0 0 0 0 0 0 0 0 0 0 0 0 0 0 0 0 127 0" result="hardAlpha"/>
<feOffset dx="-1" dy="-2"/>
<feGaussianBlur stdDeviation="1"/>
<feComposite in2="hardAlpha" operator="arithmetic" k2="-1" k3="1"/>
<feColorMatrix type="matrix" values="0 0 0 0 0.117647 0 0 0 0 0.25098 0 0 0 0 0.686275 0 0 0 1 0"/>
<feBlend mode="normal" in2="effect3_innerShadow_3740_26985" result="effect4_innerShadow_3740_26985"/>
</filter>
<linearGradient id="paint0_linear_3740_26985" x1="192.5" y1="70.5" x2="120" y2="6.5" gradientUnits="userSpaceOnUse">
<stop stop-color="#1D4ED8"/>
<stop offset="1" stop-color="#60A5FA"/>
</linearGradient>
</defs>
</svg>
