<svg width="1730" height="430" viewBox="0 0 1730 430" fill="none" xmlns="http://www.w3.org/2000/svg">
<rect width="430" height="430" rx="215" fill="#3B82F6"/>
<path fill-rule="evenodd" clip-rule="evenodd" d="M332.694 238.411C328.455 259.723 318.516 279.447 303.988 295.506C301.765 297.963 297.953 297.953 295.61 295.61L282.882 282.882C280.539 280.539 280.556 276.753 282.739 274.26C296.6 258.428 305 237.695 305 215C305 165.294 264.706 125 215 125C165.294 125 125 165.294 125 215C125 237.695 133.4 258.428 147.261 274.259C149.444 276.753 149.461 280.539 147.118 282.882L134.39 295.61C132.047 297.953 128.235 297.963 126.012 295.506C111.484 279.447 101.545 259.723 97.3058 238.411C92.6756 215.133 95.052 191.005 104.135 169.078C113.217 147.151 128.598 128.409 148.332 115.224C168.066 102.038 191.266 95 215 95C238.734 95 261.935 102.038 281.668 115.224C301.402 128.409 316.783 147.151 325.866 169.078C334.948 191.005 337.325 215.133 332.694 238.411Z" fill="white"/>
<path fill-rule="evenodd" clip-rule="evenodd" d="M227.071 255.236C226.119 252.063 222.773 250.315 219.485 250.724C218.016 250.906 216.519 251 215 251C213.482 251 211.985 250.906 210.515 250.724C207.228 250.315 203.882 252.063 202.93 255.236L181.318 327.276C180.163 331.126 183.045 335 187.064 335H242.936C246.955 335 249.838 331.126 248.683 327.276L227.071 255.236Z" fill="white"/>
<path fill-rule="evenodd" clip-rule="evenodd" d="M279.732 227.876C277.577 238.711 272.743 248.799 265.713 257.239C263.593 259.786 259.77 259.77 257.426 257.426L244.699 244.698C242.355 242.355 242.404 238.58 244.328 235.882C248.529 229.993 251 222.785 251 215C251 195.118 234.882 179 215 179C195.118 179 179 195.118 179 215C179 222.785 181.471 229.993 185.672 235.882C187.596 238.58 187.645 242.355 185.302 244.698L172.574 257.426C170.23 259.77 166.408 259.786 164.287 257.239C157.257 248.799 152.423 238.711 150.268 227.876C147.722 215.073 149.029 201.803 154.024 189.743C159.019 177.683 167.479 167.375 178.332 160.123C189.186 152.871 201.946 149 215 149C228.054 149 240.814 152.871 251.668 160.123C262.521 167.375 270.981 177.683 275.976 189.743C280.971 201.803 282.278 215.073 279.732 227.876Z" fill="white"/>
<path d="M552.074 257.831H618.08V283.5H523.703V150.909H552.074V257.831ZM678.643 181.403C687.263 181.403 694.919 183.14 701.61 186.614C708.3 190.088 713.447 195.042 717.05 201.475C720.781 207.78 722.647 215.242 722.647 223.863V283.5H695.434V273.464C691.96 277.324 687.521 280.348 682.117 282.535C676.841 284.722 671.437 285.816 665.905 285.816C658.828 285.816 652.459 284.529 646.798 281.956C641.136 279.254 636.633 275.523 633.288 270.762C630.071 265.873 628.463 260.276 628.463 253.971C628.463 247.538 630.264 241.812 633.867 236.794C637.598 231.776 642.616 227.852 648.921 225.021C655.225 222.19 662.173 220.775 669.765 220.775C678.385 220.775 686.942 222.512 695.434 225.986V223.863C695.434 218.073 693.504 213.312 689.644 209.581C685.784 205.85 679.994 203.984 672.274 203.984C664.296 203.984 655.676 206.364 646.412 211.125L636.955 192.404C651.365 185.07 665.261 181.403 678.643 181.403ZM672.274 266.323C677.935 266.323 682.953 265.101 687.328 262.656C691.702 260.083 694.404 256.544 695.434 252.041V242.97C688.872 240.397 681.666 239.11 673.818 239.11C668.671 239.11 664.296 240.461 660.694 243.163C657.091 245.865 655.29 249.21 655.29 253.199C655.29 257.188 656.898 260.404 660.115 262.849C663.331 265.165 667.384 266.323 672.274 266.323ZM770.257 202.44C773.603 195.878 778.235 190.731 784.153 187C790.201 183.269 796.956 181.403 804.418 181.403V205.142C793.996 205.142 785.697 207.908 779.521 213.441C773.345 218.974 770.257 226.436 770.257 235.829V283.5H742.079V183.719H770.257V202.44ZM853.926 181.403C862.547 181.403 870.202 183.14 876.893 186.614C883.584 190.088 888.73 195.042 892.333 201.475C896.064 207.78 897.93 215.242 897.93 223.863V283.5H870.717V273.464C867.243 277.324 862.804 280.348 857.4 282.535C852.125 284.722 846.721 285.816 841.188 285.816C834.111 285.816 827.742 284.529 822.081 281.956C816.42 279.254 811.916 275.523 808.571 270.762C805.354 265.873 803.746 260.276 803.746 253.971C803.746 247.538 805.547 241.812 809.15 236.794C812.881 231.776 817.899 227.852 824.204 225.021C830.509 222.19 837.457 220.775 845.048 220.775C853.669 220.775 862.225 222.512 870.717 225.986V223.863C870.717 218.073 868.787 213.312 864.927 209.581C861.067 205.85 855.277 203.984 847.557 203.984C839.58 203.984 830.959 206.364 821.695 211.125L812.238 192.404C826.649 185.07 840.545 181.403 853.926 181.403ZM847.557 266.323C853.218 266.323 858.236 265.101 862.611 262.656C866.986 260.083 869.688 256.544 870.717 252.041V242.97C864.155 240.397 856.95 239.11 849.101 239.11C843.954 239.11 839.58 240.461 835.977 243.163C832.374 245.865 830.573 249.21 830.573 253.199C830.573 257.188 832.181 260.404 835.398 262.849C838.615 265.165 842.668 266.323 847.557 266.323ZM905.864 183.719H935.393L962.22 251.076L988.468 183.719H1017.8L975.151 283.5H949.096L905.864 183.719ZM1074.33 264.007C1078.83 264.007 1083.46 263.106 1088.22 261.305C1092.98 259.504 1096.97 257.123 1100.19 254.164L1116.02 270.376C1111.64 275.008 1105.59 278.739 1097.87 281.57C1090.28 284.401 1082.76 285.816 1075.29 285.816C1065.51 285.816 1056.51 283.564 1048.27 279.061C1040.17 274.558 1033.73 268.317 1028.97 260.34C1024.21 252.363 1021.83 243.356 1021.83 233.32C1021.83 223.413 1024.08 214.535 1028.59 206.686C1033.22 198.837 1039.46 192.661 1047.31 188.158C1055.28 183.655 1064.1 181.403 1073.75 181.403C1084.04 181.403 1092.98 183.783 1100.58 188.544C1108.17 193.305 1113.96 200.188 1117.95 209.195C1121.93 218.202 1123.93 228.817 1123.93 241.04H1048.66C1049.95 247.988 1052.84 253.585 1057.34 257.831C1061.98 261.948 1067.64 264.007 1074.33 264.007ZM1073.94 203.212C1067.77 203.212 1062.43 205.142 1057.92 209.002C1053.42 212.733 1050.4 217.816 1048.85 224.249H1096.91C1095.75 217.816 1093.18 212.733 1089.19 209.002C1085.2 205.142 1080.12 203.212 1073.94 203.212ZM1139.98 148.593H1168.16V283.5H1139.98V148.593Z" fill="#3B82F6"/>
<path d="M1230.07 150.909H1247.06L1283.73 258.217L1318.85 150.909H1335.64L1370.77 258.217L1407.44 150.909H1424.42L1379.07 283.5H1364.21L1327.34 170.595L1290.29 283.5H1275.43L1230.07 150.909ZM1467.05 181.403C1480.3 181.403 1490.34 185.199 1497.16 192.79C1504.1 200.253 1507.58 210.224 1507.58 222.705V283.5H1493.1V267.867C1489.63 273.528 1484.61 277.967 1478.05 281.184C1471.62 284.272 1464.92 285.816 1457.98 285.816C1447.3 285.816 1438.55 282.921 1431.73 277.131C1424.91 271.341 1421.5 263.621 1421.5 253.971C1421.5 247.538 1423.24 241.812 1426.71 236.794C1430.31 231.647 1435.07 227.723 1440.99 225.021C1447.04 222.19 1453.6 220.775 1460.68 220.775C1470.71 220.775 1481.52 222.641 1493.1 226.372V222.705C1493.1 214.599 1491.04 207.78 1486.93 202.247C1482.81 196.586 1475.86 193.755 1466.08 193.755C1461.58 193.755 1456.95 194.591 1452.19 196.264C1447.55 197.808 1442.47 199.995 1436.94 202.826L1431.15 191.053C1444.02 184.62 1455.98 181.403 1467.05 181.403ZM1460.49 273.078C1467.69 273.078 1474.45 271.277 1480.75 267.674C1487.18 263.943 1491.3 258.796 1493.1 252.234V236.987C1483.32 234.285 1473.29 232.934 1462.99 232.934C1455.4 232.934 1448.91 234.864 1443.5 238.724C1438.23 242.584 1435.59 247.473 1435.59 253.392C1435.59 259.439 1437.9 264.264 1442.54 267.867C1447.3 271.341 1453.28 273.078 1460.49 273.078ZM1519.86 183.719H1536.07L1569.27 266.516L1601.89 183.719H1618.1L1576.22 283.5H1562.32L1519.86 183.719ZM1677.14 272.885C1683.06 272.885 1688.97 271.727 1694.89 269.411C1700.94 267.095 1705.51 264.264 1708.6 260.919L1717.47 270.376C1713.23 275.008 1707.25 278.739 1699.53 281.57C1691.93 284.401 1684.54 285.816 1677.33 285.816C1668.45 285.816 1660.15 283.564 1652.43 279.061C1644.71 274.558 1638.47 268.317 1633.71 260.34C1629.08 252.234 1626.76 243.227 1626.76 233.32C1626.76 223.67 1628.95 214.856 1633.33 206.879C1637.83 198.902 1643.81 192.661 1651.28 188.158C1658.87 183.655 1667.1 181.403 1675.98 181.403C1690.9 181.403 1702.48 186.614 1710.72 197.036C1719.08 207.458 1723.26 221.483 1723.26 239.11H1641.63C1642.65 249.017 1646.39 257.123 1652.82 263.428C1659.38 269.733 1667.49 272.885 1677.14 272.885ZM1676.56 194.334C1667.55 194.334 1659.83 197.293 1653.4 203.212C1646.97 209.002 1643.11 216.658 1641.82 226.179H1708.98C1707.95 216.658 1704.67 209.002 1699.14 203.212C1693.61 197.293 1686.08 194.334 1676.56 194.334Z" fill="white"/>
</svg>
